<svg width="176" height="79" viewBox="0 0 176 79" fill="none" xmlns="http://www.w3.org/2000/svg">
<rect x="68" y="26.6665" width="9.52381" height="12.0635" fill="#FF1D62"/>
<rect x="83.238" y="13.3335" width="9.52381" height="25.3968" fill="#3498DB"/>
<rect x="98.4762" width="9.52381" height="38.7302" fill="#697686"/>
<path d="M108 25.397L68 38.7303H108V25.397Z" fill="#00103A"/>
<path d="M0.112 53.358V49.13H15.624V53.358H10.22V68.73H5.488V53.358H0.112ZM13.8023 62.29C13.8023 60.9273 14.1196 59.742 14.7542 58.734C15.3889 57.726 16.2663 56.942 17.3863 56.382C18.5063 55.822 19.7663 55.542 21.1663 55.542C22.5663 55.542 23.8169 55.822 24.9183 56.382C26.0383 56.942 26.9156 57.726 27.5503 58.734C28.2036 59.742 28.5303 60.9273 28.5303 62.29C28.5303 63.634 28.2036 64.81 27.5503 65.818C26.9156 66.826 26.0383 67.61 24.9183 68.17C23.8169 68.73 22.5663 69.01 21.1663 69.01C19.7663 69.01 18.5063 68.73 17.3863 68.17C16.2663 67.61 15.3889 66.826 14.7542 65.818C14.1196 64.81 13.8023 63.634 13.8023 62.29ZM18.1423 62.29C18.1423 62.962 18.2823 63.5406 18.5623 64.026C18.8423 64.4926 19.2063 64.8566 19.6543 65.118C20.1023 65.3793 20.6063 65.51 21.1663 65.51C21.7076 65.51 22.2023 65.3793 22.6503 65.118C23.1169 64.8566 23.4809 64.4926 23.7423 64.026C24.0223 63.5406 24.1623 62.962 24.1623 62.29C24.1623 61.618 24.0223 61.0393 23.7423 60.554C23.4809 60.0686 23.1169 59.6953 22.6503 59.434C22.2023 59.1726 21.7076 59.042 21.1663 59.042C20.6063 59.042 20.1023 59.1726 19.6543 59.434C19.2063 59.6953 18.8423 60.0686 18.5623 60.554C18.2823 61.0393 18.1423 61.618 18.1423 62.29ZM35.2739 74.89H31.0459V55.85H35.2739V74.89ZM45.8019 62.29C45.8019 63.7833 45.5032 65.0433 44.9059 66.07C44.3272 67.0966 43.5712 67.8713 42.6379 68.394C41.7232 68.9166 40.7339 69.178 39.6699 69.178C38.5499 69.178 37.5792 68.898 36.7579 68.338C35.9552 67.7593 35.3392 66.9566 34.9099 65.93C34.4805 64.8846 34.2659 63.6713 34.2659 62.29C34.2659 60.89 34.4805 59.6766 34.9099 58.65C35.3392 57.6233 35.9552 56.83 36.7579 56.27C37.5792 55.6913 38.5499 55.402 39.6699 55.402C40.7339 55.402 41.7232 55.6633 42.6379 56.186C43.5712 56.7086 44.3272 57.4833 44.9059 58.51C45.5032 59.518 45.8019 60.778 45.8019 62.29ZM41.3499 62.29C41.3499 61.618 41.2099 61.0486 40.9299 60.582C40.6499 60.1153 40.2765 59.7606 39.8099 59.518C39.3432 59.2753 38.8299 59.154 38.2699 59.154C37.7845 59.154 37.3085 59.2753 36.8419 59.518C36.3939 59.742 36.0205 60.0873 35.7219 60.554C35.4232 61.0206 35.2739 61.5993 35.2739 62.29C35.2739 62.9806 35.4232 63.5593 35.7219 64.026C36.0205 64.4926 36.3939 64.8473 36.8419 65.09C37.3085 65.314 37.7845 65.426 38.2699 65.426C38.8299 65.426 39.3432 65.3046 39.8099 65.062C40.2765 64.8193 40.6499 64.4646 40.9299 63.998C41.2099 63.5313 41.3499 62.962 41.3499 62.29Z" fill="#3498DB"/>
<path d="M53.972 59.854H58.872L65.004 68.73H59.46L53.972 59.854ZM49.072 49.13H53.804V68.73H49.072V49.13ZM52.04 53.134V49.13H56.212C57.892 49.13 59.292 49.4006 60.412 49.942C61.532 50.4833 62.3813 51.2393 62.96 52.21C63.5387 53.162 63.828 54.2726 63.828 55.542C63.828 56.7926 63.5387 57.9033 62.96 58.874C62.3813 59.826 61.532 60.5726 60.412 61.114C59.292 61.6553 57.892 61.926 56.212 61.926H52.04V58.258H55.876C56.5107 58.258 57.052 58.1646 57.5 57.978C57.9667 57.7726 58.3213 57.4833 58.564 57.11C58.8067 56.718 58.928 56.2513 58.928 55.71C58.928 55.1686 58.8067 54.7113 58.564 54.338C58.3213 53.946 57.9667 53.6473 57.5 53.442C57.052 53.2366 56.5107 53.134 55.876 53.134H52.04ZM71.2049 63.69C71.2049 64.4366 71.3449 65.0246 71.6249 65.454C71.9049 65.8646 72.3902 66.07 73.0809 66.07C73.5476 66.07 73.9396 65.9766 74.2569 65.79C74.5929 65.6033 74.8542 65.3326 75.0409 64.978C75.2276 64.6233 75.3209 64.194 75.3209 63.69V55.85H79.5489V68.73H75.3209V66.798C74.9289 67.4886 74.4156 68.0393 73.7809 68.45C73.1462 68.842 72.3529 69.038 71.4009 69.038C69.7956 69.038 68.6196 68.6086 67.8729 67.75C67.1449 66.8726 66.7809 65.6686 66.7809 64.138V55.85H71.2049V63.69ZM83.5864 64.054C84.2397 64.5953 84.8277 65.0246 85.3504 65.342C85.8917 65.6406 86.3677 65.8553 86.7784 65.986C87.189 66.098 87.5437 66.154 87.8424 66.154C88.2717 66.154 88.589 66.0606 88.7944 65.874C88.9997 65.6873 89.1024 65.4446 89.1024 65.146C89.1024 64.866 89.0184 64.6326 88.8504 64.446C88.6824 64.2406 88.393 64.0446 87.9824 63.858C87.5904 63.6713 87.049 63.4753 86.3584 63.27C85.7424 63.046 85.1544 62.7846 84.5944 62.486C84.053 62.1686 83.605 61.7486 83.2504 61.226C82.8957 60.7033 82.7184 60.0313 82.7184 59.21C82.7184 58.426 82.9237 57.7633 83.3344 57.222C83.7637 56.6806 84.333 56.27 85.0424 55.99C85.7704 55.71 86.601 55.57 87.5344 55.57C88.281 55.57 88.9717 55.654 89.6064 55.822C90.2597 55.99 90.8664 56.214 91.4264 56.494C92.005 56.774 92.5464 57.1006 93.0504 57.474L91.5384 60.218C90.997 59.714 90.381 59.3033 89.6904 58.986C88.9997 58.65 88.365 58.482 87.7864 58.482C87.3944 58.482 87.0957 58.5566 86.8904 58.706C86.7037 58.8553 86.6104 59.0513 86.6104 59.294C86.6104 59.574 86.7224 59.8073 86.9464 59.994C87.189 60.1806 87.525 60.358 87.9544 60.526C88.4024 60.6753 88.9437 60.8713 89.5784 61.114C90.2504 61.3566 90.8664 61.6366 91.4264 61.954C92.005 62.2713 92.4624 62.6726 92.7984 63.158C93.153 63.6433 93.3304 64.2873 93.3304 65.09C93.3304 66.4713 92.901 67.5166 92.0424 68.226C91.2024 68.9166 90.017 69.262 88.4864 69.262C87.553 69.262 86.685 69.15 85.8824 68.926C85.0984 68.7206 84.3704 68.4406 83.6984 68.086C83.0264 67.7126 82.401 67.302 81.8224 66.854L83.5864 64.054Z" fill="#697686"/>
<path d="M101.104 58.93C101.104 60.1246 101.375 61.1606 101.916 62.038C102.457 62.8966 103.167 63.55 104.044 63.998C104.94 64.446 105.92 64.67 106.984 64.67C107.917 64.67 108.739 64.5486 109.448 64.306C110.157 64.0633 110.792 63.746 111.352 63.354C111.912 62.962 112.407 62.542 112.836 62.094V67.19C112.052 67.806 111.193 68.2913 110.26 68.646C109.327 69.0006 108.141 69.178 106.704 69.178C105.136 69.178 103.689 68.9353 102.364 68.45C101.039 67.9646 99.9 67.2646 98.948 66.35C97.996 65.4353 97.2587 64.3526 96.736 63.102C96.2133 61.8513 95.952 60.4606 95.952 58.93C95.952 57.3993 96.2133 56.0086 96.736 54.758C97.2587 53.5073 97.996 52.4246 98.948 51.51C99.9 50.5953 101.039 49.8953 102.364 49.41C103.689 48.9246 105.136 48.682 106.704 48.682C108.141 48.682 109.327 48.8593 110.26 49.214C111.193 49.5686 112.052 50.054 112.836 50.67V55.766C112.407 55.318 111.912 54.898 111.352 54.506C110.792 54.0953 110.157 53.778 109.448 53.554C108.739 53.3113 107.917 53.19 106.984 53.19C105.92 53.19 104.94 53.414 104.044 53.862C103.167 54.31 102.457 54.9633 101.916 55.822C101.375 56.6806 101.104 57.7166 101.104 58.93ZM120.457 55.85V68.73H116.285V55.85H120.457ZM124.181 60.218C123.957 59.994 123.714 59.8166 123.453 59.686C123.21 59.5553 122.902 59.49 122.529 59.49C122.118 59.49 121.754 59.602 121.437 59.826C121.119 60.05 120.877 60.3766 120.709 60.806C120.541 61.2353 120.457 61.758 120.457 62.374L119.449 60.89C119.449 59.8633 119.645 58.9486 120.037 58.146C120.447 57.3433 120.979 56.7086 121.633 56.242C122.286 55.7753 122.967 55.542 123.677 55.542C124.143 55.542 124.591 55.6353 125.021 55.822C125.45 56.0086 125.777 56.27 126.001 56.606L124.181 60.218ZM133.938 69.01C132.445 69.01 131.148 68.7393 130.046 68.198C128.964 67.638 128.124 66.854 127.526 65.846C126.929 64.838 126.63 63.6526 126.63 62.29C126.63 60.9086 126.92 59.714 127.498 58.706C128.077 57.698 128.908 56.9233 129.99 56.382C131.092 55.8406 132.389 55.57 133.882 55.57C135.376 55.57 136.636 55.8313 137.662 56.354C138.689 56.858 139.473 57.5953 140.014 58.566C140.556 59.5366 140.826 60.7126 140.826 62.094C140.826 62.2993 140.826 62.5046 140.826 62.71C140.826 62.8966 140.808 63.0553 140.77 63.186H129.01V60.834H136.962L135.954 62.122C136.048 61.9913 136.122 61.8326 136.178 61.646C136.253 61.4406 136.29 61.2726 136.29 61.142C136.29 60.582 136.188 60.0966 135.982 59.686C135.777 59.2753 135.488 58.958 135.114 58.734C134.741 58.51 134.302 58.398 133.798 58.398C133.164 58.398 132.632 58.538 132.202 58.818C131.773 59.098 131.446 59.5273 131.222 60.106C131.017 60.666 130.905 61.3753 130.886 62.234C130.886 63.018 130.998 63.69 131.222 64.25C131.446 64.81 131.782 65.2393 132.23 65.538C132.678 65.818 133.229 65.958 133.882 65.958C134.629 65.958 135.264 65.818 135.786 65.538C136.328 65.258 136.757 64.838 137.074 64.278L140.854 65.202C140.182 66.4713 139.268 67.4233 138.11 68.058C136.972 68.6926 135.581 69.01 133.938 69.01ZM153.209 46.89H157.437V68.73H153.209V46.89ZM142.681 62.29C142.681 60.834 142.97 59.6113 143.549 58.622C144.146 57.6326 144.912 56.8766 145.845 56.354C146.778 55.8313 147.768 55.57 148.813 55.57C149.896 55.57 150.848 55.8406 151.669 56.382C152.509 56.9233 153.172 57.698 153.657 58.706C154.142 59.6953 154.385 60.89 154.385 62.29C154.385 63.6713 154.142 64.866 153.657 65.874C153.172 66.882 152.509 67.6566 151.669 68.198C150.848 68.7393 149.896 69.01 148.813 69.01C147.768 69.01 146.778 68.7486 145.845 68.226C144.912 67.7033 144.146 66.9473 143.549 65.958C142.97 64.95 142.681 63.7273 142.681 62.29ZM147.133 62.29C147.133 62.962 147.273 63.55 147.553 64.054C147.833 64.5393 148.206 64.922 148.673 65.202C149.14 65.4633 149.653 65.594 150.213 65.594C150.698 65.594 151.165 65.4633 151.613 65.202C152.08 64.9406 152.462 64.5673 152.761 64.082C153.06 63.578 153.209 62.9806 153.209 62.29C153.209 61.5993 153.06 61.0113 152.761 60.526C152.462 60.022 152.08 59.6393 151.613 59.378C151.165 59.1166 150.698 58.986 150.213 58.986C149.653 58.986 149.14 59.126 148.673 59.406C148.206 59.6673 147.833 60.05 147.553 60.554C147.273 61.0393 147.133 61.618 147.133 62.29ZM160.466 51.006C160.466 50.334 160.709 49.7926 161.194 49.382C161.68 48.9526 162.258 48.738 162.93 48.738C163.621 48.738 164.2 48.9526 164.666 49.382C165.152 49.7926 165.394 50.334 165.394 51.006C165.394 51.678 165.152 52.2286 164.666 52.658C164.2 53.0873 163.621 53.302 162.93 53.302C162.258 53.302 161.68 53.0873 161.194 52.658C160.709 52.2286 160.466 51.678 160.466 51.006ZM160.886 55.85H164.974V68.73H160.886V55.85ZM166.945 55.85H175.569V59.35H166.945V55.85ZM169.213 51.37H173.273V68.73H169.213V51.37Z" fill="#3498DB"/>
</svg>
